<svg width="137" height="87" viewBox="0 0 137 87" fill="none" xmlns="http://www.w3.org/2000/svg">
<g opacity="0.8" clip-path="url(#clip0_6_27)">
<path fill-rule="evenodd" clip-rule="evenodd" d="M73.1761 87H7.56135C3.38411 87 0 84.8496 0 82.198V4.8017C0 2.14936 3.38464 0 7.56135 0H129.439C133.615 0 137 2.14936 137 4.8017V82.198C137 84.85 133.614 87 129.439 87H94.528V53.3088H112.336L115.002 40.1788H94.528V31.7961C94.528 27.9946 96.1903 25.404 104.774 25.404L115.723 25.401V13.6574C113.83 13.4973 107.33 13.1399 99.769 13.1399C83.9834 13.1399 73.1761 19.2588 73.1761 30.4957V40.1788H55.3227V53.3088H73.1761V87Z" fill="white"/>
</g>
<defs>
<clipPath id="clip0_6_27">
<rect width="137" height="87" fill="white"/>
</clipPath>
</defs>
</svg>
