<svg width="130" height="104" viewBox="0 0 130 104" fill="none" xmlns="http://www.w3.org/2000/svg">
<g opacity="0.8">
<path fill-rule="evenodd" clip-rule="evenodd" d="M64.9459 4C49.2086 4 47.2354 4.05583 41.0548 4.29186C34.8872 4.52731 30.6748 5.34725 26.9891 6.54627C23.1786 7.78553 19.9472 9.4439 16.7256 12.1402C13.5042 14.8366 11.5228 17.5413 10.0422 20.7306C8.60963 23.8156 7.63004 27.3412 7.34874 32.5035C7.06674 37.6765 7 39.3282 7 52.5001C7 65.6718 7.06674 67.3235 7.34874 72.4965C7.63004 77.6588 8.60963 81.1844 10.0422 84.2693C11.5228 87.4587 13.5042 90.1634 16.7256 92.8598C19.9472 95.5561 23.1786 97.2145 26.9891 98.4539C30.6748 99.6527 34.8872 100.473 41.0548 100.708C47.2354 100.944 49.2086 101 64.9459 101C80.6829 101 82.6561 100.944 88.8366 100.708C95.0042 100.473 99.2165 99.6527 102.902 98.4539C106.713 97.2145 109.944 95.5561 113.166 92.8598C116.387 90.1634 118.369 87.4587 119.849 84.2693C121.282 81.1844 122.261 77.6588 122.543 72.4965C122.825 67.3235 122.891 65.6718 122.891 52.5001C122.891 39.3282 122.825 37.6765 122.543 32.5035C122.261 27.3412 121.282 23.8156 119.849 20.7306C118.369 17.5413 116.387 14.8366 113.166 12.1402C109.944 9.4439 106.713 7.78553 102.902 6.54627C99.2165 5.34725 95.0042 4.52731 88.8366 4.29186C82.6561 4.05583 80.6829 4 64.9459 4ZM64.9459 12.7387C80.4179 12.7387 82.2506 12.7882 88.3608 13.0215C94.0104 13.2372 97.0787 14.0273 99.1205 14.6915C101.825 15.5713 103.756 16.6223 105.783 18.3195C107.811 20.0166 109.066 21.6322 110.118 23.8961C110.911 25.6051 111.855 28.1731 112.113 32.9018C112.392 38.016 112.451 39.55 112.451 52.5001C112.451 65.45 112.392 66.984 112.113 72.0982C111.855 76.8269 110.911 79.3949 110.118 81.1039C109.066 83.3678 107.811 84.9834 105.783 86.6805C103.756 88.3777 101.825 89.4287 99.1205 90.3085C97.0787 90.9727 94.0104 91.7628 88.3608 91.9785C82.2515 92.2118 80.419 92.2613 64.9459 92.2613C49.4725 92.2613 47.6401 92.2118 41.5307 91.9785C35.881 91.7628 32.8129 90.9727 30.771 90.3085C28.0662 89.4287 26.1359 88.3777 24.1083 86.6805C22.0807 84.9834 20.8249 83.3678 19.7737 81.1039C18.9801 79.3949 18.0362 76.8269 17.7785 72.0982C17.4998 66.984 17.4406 65.45 17.4406 52.5001C17.4406 39.55 17.4998 38.016 17.7785 32.9018C18.0362 28.1731 18.9801 25.6051 19.7737 23.8961C20.8249 21.6322 22.0805 20.0166 24.1083 18.3195C26.1359 16.6223 28.0662 15.5713 30.771 14.6915C32.8129 14.0273 35.881 13.2372 41.5307 13.0215C47.6408 12.7882 49.4736 12.7387 64.9459 12.7387ZM64.9459 27.5946C48.5119 27.5946 35.1898 38.745 35.1898 52.5001C35.1898 66.2549 48.5119 77.4054 64.9459 77.4054C81.3796 77.4054 94.7017 66.2549 94.7017 52.5001C94.7017 38.745 81.3796 27.5946 64.9459 27.5946ZM64.9459 68.6667C54.2782 68.6667 45.6305 61.4286 45.6305 52.5001C45.6305 43.5714 54.2782 36.3333 64.9459 36.3333C75.6133 36.3333 84.261 43.5714 84.261 52.5001C84.261 61.4286 75.6133 68.6667 64.9459 68.6667ZM102.831 26.6106C102.831 29.825 99.7175 32.4305 95.8772 32.4305C92.0371 32.4305 88.9238 29.825 88.9238 26.6106C88.9238 23.3963 92.0371 20.7905 95.8772 20.7905C99.7175 20.7905 102.831 23.3963 102.831 26.6106Z" fill="white"/>
</g>
</svg>
