<svg width="127" height="35" viewBox="0 0 127 35" fill="none" xmlns="http://www.w3.org/2000/svg">
<path d="M117.767 8.28003C119.021 8.28003 120.327 8.37336 121.687 8.56003C123.047 8.72003 124.634 8.9467 126.447 9.24003V25.16C126.447 28.9734 125.181 31.9334 122.647 34.04C122.327 34.3067 121.607 34.5334 120.487 34.72C119.367 34.9067 118.101 35 116.687 35C113.621 35 111.194 34.6 109.407 33.8C109.381 33.2134 109.421 32.44 109.527 31.48C109.661 30.52 109.794 29.76 109.927 29.2C111.847 29.4934 113.727 29.64 115.567 29.64C116.501 29.64 117.287 29.5867 117.927 29.48C118.594 29.4 119.007 29.2667 119.167 29.08C119.381 28.8667 119.541 28.0667 119.647 26.68C119.674 26.3067 119.687 25.76 119.687 25.04V24.04C119.021 25.0267 118.167 25.7334 117.127 26.16C116.087 26.5867 115.154 26.8 114.327 26.8C112.087 26.8 110.394 26.0667 109.247 24.6C108.101 23.1334 107.527 20.9867 107.527 18.16C107.527 16.2934 107.781 14.5467 108.287 12.92C108.821 11.2667 109.541 10.12 110.447 9.48003C111.034 9.08003 111.981 8.7867 113.287 8.60003C114.621 8.3867 116.114 8.28003 117.767 8.28003ZM116.927 21.8C117.914 21.8 118.807 21.64 119.607 21.32V12.96C119.314 12.9067 118.874 12.8534 118.287 12.8C118.021 12.7734 117.621 12.76 117.087 12.76C116.261 12.76 115.741 12.84 115.527 13C115.234 13.2134 114.994 13.8134 114.807 14.8C114.647 15.76 114.567 16.7734 114.567 17.84C114.567 19.3067 114.727 20.3334 115.047 20.92C115.394 21.5067 116.021 21.8 116.927 21.8Z" fill="white"/>
<path d="M104.288 9.76001C104.528 10.0533 104.701 10.7867 104.808 11.96C104.941 13.1333 105.008 14.92 105.008 17.32V27H98.1677V17.4V15.76C98.1677 14.9067 98.101 14.3733 97.9677 14.16C97.7543 13.8933 97.261 13.76 96.4877 13.76C96.1143 13.76 95.8343 13.7733 95.6477 13.8C94.901 13.8267 94.1277 14 93.3277 14.32V27H86.4877V8.60001H92.0477L92.8077 11.68C94.7277 9.36002 97.021 8.20001 99.6877 8.20001C100.648 8.20001 101.541 8.33335 102.368 8.60001C103.221 8.86668 103.861 9.25335 104.288 9.76001Z" fill="white"/>
<path d="M79.6961 6.32002C78.7894 6.32002 78.0028 6.01335 77.3361 5.40002C76.6961 4.78668 76.3761 4.05335 76.3761 3.20002C76.3761 2.34668 76.6961 1.61335 77.3361 1.00002C78.0028 0.386686 78.7894 0.0800171 79.6961 0.0800171C80.6028 0.0800171 81.3761 0.386686 82.0161 1.00002C82.6561 1.61335 82.9761 2.34668 82.9761 3.20002C82.9761 4.05335 82.6561 4.78668 82.0161 5.40002C81.3761 6.01335 80.6028 6.32002 79.6961 6.32002ZM76.2561 8.60002H83.0961V27H76.2561V8.60002Z" fill="white"/>
<path d="M72.318 9.88001C72.7447 10.52 72.958 13 72.958 17.32V27H66.118V18V15.84C66.118 14.8533 66.0246 14.2667 65.838 14.08C65.6246 13.8667 65.1713 13.76 64.478 13.76L63.998 13.8C63.1713 13.8533 62.3847 14.04 61.638 14.36C61.6647 14.92 61.678 15.9067 61.678 17.32V27H54.838V18V15.6C54.838 14.7733 54.7446 14.2667 54.558 14.08C54.3447 13.8667 53.8913 13.76 53.198 13.76L52.718 13.8C51.9713 13.8267 51.198 14 50.398 14.32V27H43.558V8.60001H49.118L49.838 11.6C50.718 10.4267 51.7313 9.57335 52.878 9.04001C54.0246 8.48001 55.1847 8.20001 56.358 8.20001C57.3447 8.20001 58.278 8.34668 59.158 8.64001C60.0646 8.93335 60.6913 9.34668 61.038 9.88001C61.198 10.12 61.3313 10.56 61.438 11.2C62.2913 10.16 63.2647 9.40001 64.358 8.92001C65.4513 8.44001 66.5447 8.20001 67.638 8.20001C68.6247 8.20001 69.558 8.34668 70.438 8.64001C71.3447 8.93335 71.9713 9.34668 72.318 9.88001Z" fill="white"/>
<path d="M34.8695 27L34.2295 24.48C33.0029 26.48 31.2962 27.48 29.1095 27.48C27.3229 27.48 25.8562 26.9867 24.7095 26C23.5895 24.9867 23.0295 23.5733 23.0295 21.76C23.0295 20.64 23.3495 19.6667 23.9895 18.84C24.6562 17.9867 25.5629 17.3867 26.7095 17.04C28.2029 16.6133 30.5095 16.3733 33.6295 16.32C33.6295 14.56 33.5495 13.6267 33.3895 13.52C33.2562 13.4133 32.8295 13.36 32.1095 13.36C31.6562 13.36 31.0295 13.3867 30.2295 13.44C28.9495 13.4933 27.2162 13.64 25.0295 13.88C24.8162 12.44 24.6562 10.8933 24.5495 9.24001C25.9629 8.94668 27.4429 8.70668 28.9895 8.52002C30.5362 8.30668 31.9229 8.20001 33.1495 8.20001C35.2829 8.20001 36.8829 8.56001 37.9495 9.28001C39.0162 9.97335 39.7095 10.8933 40.0295 12.04C40.3495 13.1867 40.4962 14.64 40.4695 16.4L40.4295 22.28L40.5495 27H34.8695ZM31.4295 23C32.1229 23 32.8562 22.8667 33.6295 22.6V19.64H33.3095C31.3362 19.64 30.2429 19.7467 30.0295 19.96C29.8962 20.0933 29.7895 20.2933 29.7095 20.56C29.6562 20.8267 29.6295 21.08 29.6295 21.32C29.6295 21.96 29.7762 22.4 30.0695 22.64C30.3629 22.88 30.8162 23 31.4295 23Z" fill="white"/>
<path d="M20.8692 14.36V25.76C19.0826 26.3467 17.3892 26.7734 15.7892 27.04C14.1892 27.3067 12.8426 27.44 11.7492 27.44C8.12256 27.44 5.28256 26.4934 3.22923 24.6C1.1759 22.7067 0.149231 19.8 0.149231 15.88C0.149231 11.88 1.22923 8.89338 3.38923 6.92004C5.54923 4.92004 8.58923 3.92004 12.5092 3.92004C14.5626 3.92004 17.0292 4.22671 19.9092 4.84005C19.9092 5.37338 19.8559 6.17338 19.7492 7.24004C19.6426 8.28004 19.5359 9.01338 19.4292 9.44004L17.9892 9.40004C16.2292 9.34671 14.8559 9.32005 13.8692 9.32005C10.9092 9.32005 9.2959 9.49338 9.02923 9.84005C8.60257 10.3467 8.2959 11.1334 8.10923 12.2C7.94923 13.2667 7.86923 14.2934 7.86923 15.28C7.86923 17.0667 8.06923 18.4534 8.46923 19.44C8.86923 20.4267 9.48256 21.12 10.3092 21.52C11.1359 21.92 12.2559 22.12 13.6692 22.12H13.8292V14.36H20.8692Z" fill="white"/>
</svg>
