<svg width="107" height="75" viewBox="0 0 107 75" fill="none" xmlns="http://www.w3.org/2000/svg">
<g clip-path="url(#clip0_7_52)">
<path d="M53.5 75C83.0472 75 107 58.2107 107 37.5C107 16.7893 83.0472 0 53.5 0C23.9528 0 0 16.7893 0 37.5C0 58.2107 23.9528 75 53.5 75Z" fill="white"/>
<path d="M25.3258 43.6304C23.1252 44.6558 23.8629 46.6128 28.5535 47.5386C33.4658 48.6851 38.7048 48.9676 43.8094 48.3611C44.103 48.3611 44.3966 48.2585 44.5408 48.2585V44.7612L39.5524 45.8928C37.6454 46.3044 35.7374 46.4055 33.8304 46.0986C32.3675 45.7903 32.6569 45.1728 34.4176 44.6587L44.5471 42.1875V38.3789L30.4616 41.773C28.6244 42.2047 26.8924 42.8311 25.3258 43.6304ZM59.3662 28.2034V38.1797C65.3818 40.2363 70.0777 38.1797 70.0777 32.833C70.0777 27.3823 67.2898 24.9141 59.2199 22.96C54.965 21.9346 50.5627 21.0059 46.1584 20.3892V50.1094L56.4289 52.2693V27.2776C56.4289 26.146 56.4289 25.3235 57.6024 25.6318C59.2199 25.9409 59.3662 27.0718 59.3662 28.2034ZM78.4412 41.2647C74.1863 40.2393 69.6378 39.8247 65.2355 40.1331C62.8876 40.2356 60.687 40.6458 58.6327 41.1584L58.1927 41.261V45.2717L67.7297 42.8035C69.6367 42.3918 71.5448 42.2908 73.4517 42.5977C74.9146 42.906 74.6252 43.5234 72.8645 44.0376L58.1917 47.8462V51.7544L78.4412 46.5088C79.9041 46.0972 81.2291 45.583 82.4025 44.7605C83.4297 43.7329 82.9898 42.293 78.4412 41.2647Z" fill="#7A4021"/>
</g>
<defs>
<clipPath id="clip0_7_52">
<rect width="107" height="75" fill="white"/>
</clipPath>
</defs>
</svg>
