<svg width="101" height="75" viewBox="0 0 101 75" fill="none" xmlns="http://www.w3.org/2000/svg">
<g clip-path="url(#clip0_7_55)">
<path d="M17.2626 65.7281C26.138 71.5031 37.7782 75 50.5 75C63.2344 75 74.862 71.5031 83.7543 65.7281C91.6533 59.7531 65.5911 38.5125 50.5 30.05C35.4258 38.5125 9.34671 59.7531 17.2626 65.7281ZM64.2276 20.7094C74.7484 29.9625 95.7227 52.9375 89.7974 61.0594C96.8001 54.625 101 46.4406 101 37.5125C101 27.075 95.2556 17.6313 85.9763 10.8375C85.9763 10.8375 85.8626 10.7688 85.6312 10.7063C85.366 10.6375 84.9915 10.5656 84.4486 10.5656C81.9573 10.5656 76.0951 11.9219 64.2276 20.7094ZM15.3773 10.7063C15.1374 10.7688 15.0322 10.8344 15.0153 10.8375C5.74438 17.6313 0 27.075 0 37.5125C0 46.4312 4.19992 54.6156 11.1984 61.0531C5.3025 52.9125 26.26 29.9562 36.785 20.7094C24.9175 11.9187 19.0427 10.5688 16.5598 10.5688C16.0085 10.5688 15.6213 10.6344 15.3773 10.7125V10.7063ZM50.5 11.0969C50.5 11.0969 38.1065 5.7125 28.4273 5.45625C24.6272 5.35313 22.3084 6.37813 22.0264 6.51562C31.0533 2.01875 40.6483 0 50.4327 0H50.5C60.3223 0 69.8794 2.01875 78.9736 6.51562C78.6874 6.37188 76.3855 5.35313 72.5769 5.45625C62.8978 5.7125 50.5 11.0781 50.5 11.0781V11.0969Z" fill="white"/>
</g>
<defs>
<clipPath id="clip0_7_55">
<rect width="101" height="75" fill="white"/>
</clipPath>
</defs>
</svg>
