<svg width="136" height="87" viewBox="0 0 136 87" fill="none" xmlns="http://www.w3.org/2000/svg">
<g opacity="0.8" clip-path="url(#clip0_6_34)">
<path fill-rule="evenodd" clip-rule="evenodd" d="M53.958 59.5436L53.9537 24.7892L90.6993 42.2264L53.958 59.5436ZM134.64 18.7668C134.64 18.7668 133.31 10.2435 129.234 6.49014C124.062 1.56168 118.265 1.53844 115.608 1.25239C96.577 -1.81496e-05 68.0297 0 68.0297 0H67.9703C67.9703 0 39.423 -1.81496e-05 20.3915 1.25239C17.731 1.53844 11.9383 1.56168 6.76176 6.49014C2.68601 10.2435 1.35999 18.7668 1.35999 18.7668C1.35999 18.7668 0 28.7784 0 38.7861V48.1714C0 58.183 1.35999 68.1907 1.35999 68.1907C1.35999 68.1907 2.68601 76.714 6.76176 80.4674C11.9383 85.3959 18.734 85.2412 21.76 85.7553C32.64 86.7062 68 87 68 87C68 87 96.577 86.9614 115.608 85.709C118.265 85.419 124.062 85.3959 129.234 80.4674C133.31 76.714 134.64 68.1907 134.64 68.1907C134.64 68.1907 136 58.183 136 48.1714V38.7861C136 28.7784 134.64 18.7668 134.64 18.7668Z" fill="white"/>
</g>
<defs>
<clipPath id="clip0_6_34">
<rect width="136" height="87" fill="white"/>
</clipPath>
</defs>
</svg>
